<?xml version="1.0" encoding="iso-8859-1"?>
<!-- Generator: Adobe Illustrator 21.1.0, SVG Export Plug-In . SVG Version: 6.00 Build 0)  -->
<svg version="1.1" id="_x31_1" xmlns="http://www.w3.org/2000/svg" xmlns:xlink="http://www.w3.org/1999/xlink" x="0px" y="0px"
	 viewBox="0 0 512 512" style="enable-background:new 0 0 512 512;" xml:space="preserve">
<g>
	<path style="fill:#FFFFFF;" d="M326.151,480.143c-20.016-1.925-30.409-0.77-36.953-12.318c-6.544-11.548-4.619-34.258,9.238-67.747
		c13.857-33.489,7.313-58.509,5.389-67.362c-1.925-8.853-3.079-10.778-7.699-17.706c-4.619-6.929-1.925-40.033-3.464-60.819
		c-1.54-20.786-6.159-30.794,1.54-26.56c7.699,4.234,29.639,5.389,36.568,5.774c6.929,0.385,15.012-0.77,18.477-13.087
		c3.464-12.318,2.694-43.112,0.77-52.735c-1.925-9.623-5.389-15.397-10.393-21.941c-5.004-6.543-5.389-32.718-13.857-33.489
		c-8.469-0.77-13.473,10.778-15.782,6.544c-2.31-4.235-16.552-17.707-17.707-18.092c-1.155-0.384-13.857-8.083-20.401-8.853
		c-6.544-0.77-7.314-5.004-5.774-15.012c1.54-10.008,6.929-21.171,6.159-38.877c-0.77-17.707-10.393-33.104-20.786-31.949
		c-10.393,1.155-15.012,31.564-15.012,31.564c-5.389-10.393-28.87-26.945-32.334-27.715c-3.464-0.77-8.853,12.703-7.698,42.727
		s23.48,56.199,25.02,60.049c1.54,3.849-4.234,48.501-7.314,56.584c0,0,1.54,1.924-1.54,3.464
		c-3.85,1.54-10.393,10.778-16.552,22.326c-6.159,11.548-16.937,45.036-18.477,53.89c-1.54,8.853-18.091,59.279-18.091,59.279
		s-4.619,5.774-8.469,15.397c-3.849,9.623-2.694,25.021,6.159,25.021c-0.77,2.694,7.314,5.389,9.623,5.004
		c2.31-0.385,5.389-3.464,11.933-2.31c6.544,1.155,12.318-6.158,11.933-4.619c-0.385,1.54,5.774,15.012,5.004,21.941
		c-0.77,6.929,0,3.08,0,3.08l1.925,41.572c0,0,3.464,8.853,5.389,15.397c1.925,6.544-0.77,29.64,1.54,46.191
		c2.31,16.552,20.401,23.096,37.338,31.564c16.937,8.469,30.409,6.159,31.564,1.54c3.85,1.155,8.469,1.539,10.778-1.54
		c13.857,6.929,3.464-10.778,3.464-10.778s4.234,0.385,13.472,3.464c9.238,3.08,26.175,2.695,28.1,0.385
		c1.155,2.695,6.929-1.924,11.163-3.849c2.31,4.619,8.44,0.52,8.854-2.31C349.661,490.401,346.168,482.068,326.151,480.143z
		 M240.698,450.888c3.464-19.631,9.238-20.786,9.238-20.786c0,20.786,0,45.036,13.857,53.12
		C248.781,479.758,237.233,470.52,240.698,450.888z M286.119,163.348c1.925-4.234,3.464-4.619,3.464-4.619
		s7.314,13.857,12.703,17.707c5.389,3.849,13.088-1.155,15.782-2.695c2.694-1.54,5.389-1.155,5.389-1.155
		c2.694,8.469,8.853,20.786-0.77,21.941c-9.623,1.155-25.405-8.469-30.794-13.472C286.504,176.05,284.194,167.582,286.119,163.348z"
		/>
	<path style="fill:#717071;" d="M292.278,100.604c6.159-2.31,9.623-2.31,14.242,1.925c4.619,4.234,13.857,23.48,20.786,33.874
		c6.929,10.393,10.778,16.937,7.699,21.556c-3.079,4.619-8.083,10.393-16.937,15.782c-8.853,5.389-11.163,5.389-16.937,1.155
		c-5.774-4.234-11.548-16.167-11.548-16.167l4.234-4.234c0,0,15.782-18.092,16.937-21.171c1.155-3.079,0.385-12.703-2.31-16.937
		S292.278,100.604,292.278,100.604z"/>
	<path style="fill:#8ADAF9;" d="M313.064,136.403c2.694,5.004,12.318,12.703,10.008,16.937s-15.782,13.857-20.786,11.933
		c-5.004-1.925-8.468-10.778-8.468-10.778s11.163-11.548,13.088-15.012C308.83,136.018,310.754,131.399,313.064,136.403z"/>
	<g>
		<path style="fill:#231815;" d="M290.618,97.232c11.626,7.108,27.885,20.773,22.298,36.293c-2.522,7.006-8.696,12.145-14.115,16.91
			c-2.662,2.341-5.358,4.653-7.825,7.204c-0.626,0.648-5.968,6.168-5.631,6.741c-0.281-0.479,1.643-3.831,1.893-4.315
			c1.042-2.017,2.317-3.904,3.73-5.678c2.882-3.617,6.329-6.701,9.645-9.905c6.882-6.648,12.773-14.756,7.848-24.406
			c-3.296-6.458-8.538-12.042-14.353-16.284c-3.733-2.723-7.757-5.085-11.956-7.011c-0.715-0.328-9.323-3.957-9.355-3.914
			c1.137-1.499,8.089,0.878,9.51,1.283C285.143,94.961,287.937,96.001,290.618,97.232z"/>
		<path style="fill:#231815;" d="M247.505,92.271c1.04,1.415,6.202,6.066,8.063,3.318c0.719-1.061-5.139-7.937-5.703-8.972
			c-3.651-6.697-5.827-14.341-7.438-21.763c-2.89-13.313-1.43-27.974-9.864-39.434c-4.931-6.7-12.117-11.35-19.558-14.837
			c-3.122-1.463-6.583-3.223-10.055-3.496c-0.991-0.078-3.001-0.307-3.149,1.073c-0.133,1.235,2.634,2.529,3.437,2.964
			c6.563,3.552,14.116,5.075,20.259,9.444c5.917,4.208,10.02,10.472,11.973,17.423c2.518,8.963,2.372,18.788,3.691,27.978
			C240.434,74.86,242.034,84.863,247.505,92.271z"/>
		<path style="fill:#231815;" d="M196.993,36.433c-0.887,14.651,2.237,29.286,7.448,42.922c2.519,6.591,5.557,12.97,9.035,19.108
			c1.603,2.829,3.26,5.618,4.969,8.384c0.751,1.216,3.748,4.439,3.484,5.854c0.154-0.823-5.714-5.955-6.487-6.86
			c-2.874-3.366-5.315-7.038-7.469-10.901c-4.798-8.605-8.565-17.928-11.316-27.383c-2.133-7.332-2.904-14.593-3.219-22.209
			c-0.204-4.915-0.189-9.892,0.474-14.776c0.202-1.484,1.363-11.646,3.321-11.785c0.322-0.023-0.387,8.435-0.405,9.158
			C196.755,30.789,196.836,33.595,196.993,36.433z"/>
		<path style="fill:#231815;" d="M266.302,70.698c3.03-13.588,6.846-28.641,4.311-42.578c-1.154-6.343-3.786-12.291-7.593-17.485
			c-1.415-1.93-2.993-3.727-4.628-5.472c-0.608-0.649-2.93-3.943-3.583-4.017c1.061,0.121,2.865,1.846,3.752,2.413
			c1.834,1.173,3.65,2.578,5.22,4.092c2.982,2.875,5.314,6.317,7.044,10.064c3.767,8.157,4.527,17.095,4.003,25.965
			c-0.413,6.985-2.065,13.811-3.511,20.645c-0.905,4.276-1.923,8.537-2.558,12.865c-0.195,1.327-0.149,9.755-1.43,10.224
			C266.353,87.771,266.184,72.242,266.302,70.698z"/>
		<path style="fill:#231815;" d="M237.259,25.008c2.317-7.364,5.69-14.674,11.187-20.225c1.12-1.131,4.477-4.676,6.393-4.48
			c1.636,0.167,0.251,0.828,0.249,0.825c0.023,0.045,0.196-0.449,0.191-0.525c-0.536,0.143-0.542,0.533-0.969,1.047
			c-1.455,1.754-2.523,3.958-3.964,5.772c-2.875,3.616-4.416,7.446-6.551,11.42c-1.717,3.197-2.76,6.341-3.887,9.808
			c-0.21,0.645-0.92,3.636-2.001,3.073C237.039,31.271,237.283,25.94,237.259,25.008z"/>
		<path style="fill:#231815;" d="M222.76,123.243c-1.606,9.405-2.74,18.884-4.473,28.268c-0.821,4.445-1.753,8.884-3.056,13.216
			c-0.244,0.812-0.984,4.721-1.988,5.106c0.187-0.072-0.028-3.085-0.032-3.354c-0.06-3.431,0.287-6.806,0.857-10.188
			c1.198-7.1,1.409-14.581,2.962-21.581c1.357-6.115,1.965-12.368,3.362-18.468c0.531-2.317,1.565-5.037,1.896-0.803
			C222.49,118.035,222.603,120.642,222.76,123.243z"/>
		<path style="fill:#231815;" d="M325.886,109.783c6.375,3.543,8.886,12.403,10.757,18.905c1.045,3.631,1.86,7.315,2.712,10.993
			c0.34,1.467,0.617,3.007,1.151,4.421c0.159,0.42,1.6,2.459,1.598,2.468c-0.21,1.163-3.922-2.736-4.194-3.19
			c-1.469-2.452-2.156-5.247-2.918-7.974c-1.449-5.185-3.529-9.93-5.448-14.918c-1.845-4.795-4.391-8.622-10.094-8.283
			c-0.486,0.029-2.587,0.523-2.77-0.126c-0.183-0.652,1.896-1.512,2.315-1.703C321.188,109.384,323.564,109.097,325.886,109.783z"/>
		<path style="fill:#231815;" d="M305.043,99.227c8.505,8.204,14.664,19.157,20.295,29.432c2.778,5.069,5.384,10.231,7.785,15.489
			c0.537,1.177,5.049,9.376,4.364,10.371c0.035-0.05-7.062-9.593-7.377-10.119c-4.192-7.002-7.721-14.358-12.125-21.246
			c-3.208-5.018-6.323-10.277-9.851-15.066c-2.234-3.032-4.831-6.142-8-8.234c-1.38-0.911-2.974-1.684-4.676-1.422
			c-0.4,0.062-3.372,1.552-3.5,1.302c-1.005-2.199,4.775-3.573,5.857-3.517C300.436,96.354,302.927,97.783,305.043,99.227z"/>
		<path style="fill:#231815;" d="M299.771,171.771c5.728,6.88,15.99,1.394,21.924-2.63c3.396-2.303,6.61-5.046,9.217-8.226
			c0.553-0.674,5.21-8.344,4.416-8.61c1.276,0.428-0.307,6.693-0.665,7.599c-1.406,3.558-4.128,6.376-6.954,8.865
			c-4.705,4.143-11.072,8.73-17.414,9.74c-7.293,1.162-12.277-2.13-15.988-8.31c-0.799-1.33-1.742-2.823-2.154-4.335
			c-0.506-1.855-0.098-1.685,1.109-0.648C295.585,167.214,297.334,169.831,299.771,171.771z"/>
		<path style="fill:#231815;" d="M299.101,160.928c4.452,5.344,12.432,1.051,17.037-2.088c2.632-1.794,5.129-3.942,7.138-6.423
			c0.344-0.424,3.89-6.351,3.321-6.543c0.75,0.252-0.041,4.437-0.2,4.979c-0.62,2.108-1.899,3.911-3.369,5.51
			c-3.37,3.667-7.692,6.603-12.234,8.613c-3.48,1.54-7.864,2.164-11.25,0.007c-1.028-0.655-7.984-9.481-6.425-9.855
			C293.961,154.925,298.168,160.2,299.101,160.928z"/>
		<path style="fill:#231815;" d="M294.046,225.114c-0.696,8.457-0.153,17.007,0.613,25.44c0.869,9.563,1.086,18.887,0.922,28.488
			c-0.143,8.386,0.376,16.759,0.512,25.143c0.046,2.819,0.061,5.64,0.169,8.457c0.037,0.966,0.757,5.95,0.743,5.961
			c-0.621,0.498-3.037-10.512-3.216-11.881c-0.708-5.411-1.01-10.868-1.355-16.311c-0.72-11.381,0.402-22.8-1.138-34.134
			c-1.249-9.184-1.261-18.795-0.982-28.05c0.157-5.188,0.679-10.414,2.102-15.422c0.216-0.76,2.387-7.985,3.656-7.605
			c0.152,0.045-1.715,9.424-1.791,10.185C293.962,218.611,293.895,221.877,294.046,225.114z"/>
		<path style="fill:#231815;" d="M199.527,193.197c-4.979,9.188-8.924,18.94-12.344,28.803c-3.71,10.698-6.002,21.583-8.773,32.529
			c-2.58,10.19-6.458,19.806-9.852,29.726c-1.546,4.517-3.049,9.051-4.467,13.61c-0.565,1.816-1.117,3.635-1.646,5.461
			c-0.455,1.57-0.674,4.1-1.633,5.469c0.551-0.787,0.218-4.278,0.307-5.344c0.227-2.718,0.563-5.424,1.018-8.113
			c0.927-5.468,2.266-10.857,3.901-16.155c2.087-6.759,4.727-13.293,6.562-20.138c1.817-6.777,3.039-13.657,4.543-20.502
			c2.381-10.836,6.154-20.75,10.505-30.91c4.645-10.848,9.495-23.709,18.492-31.788c1.278-1.148,5.393-4.571,7.386-3.173
			c1.051,0.737-0.105,0.613-0.811,1.021c-1.428,0.825-2.628,1.495-3.791,2.695C204.487,180.963,201.915,187.393,199.527,193.197z"/>
		<path style="fill:#231815;" d="M312.858,231.102c8.608,1.677,19.928,3.174,27.914-1.463c7.319-4.25,8.271-16.978,8.973-24.435
			c0.925-9.832,0.828-19.787,0.07-29.627c-0.283-3.68-0.672-7.359-1.281-11c-0.489-2.922-1.967-5.954-2.237-8.816
			c0.067,0.706,1.45,2.369,1.811,3.13c1.031,2.173,1.826,4.454,2.484,6.765c1.087,3.818,1.801,7.737,2.278,11.675
			c1.309,10.806,1.194,22.066-0.163,32.864c-1.12,8.915-2.983,20.73-12.682,24.04c-8.874,3.029-19.143,2.03-28.165,0.309
			c-5.336-1.018-10.641-2.482-15.683-4.513c-1.53-0.616-4.233-1.385-5.378-2.665c-0.507-0.567-0.844-0.998-0.147-0.611
			c0.053,0.014-0.217,0.081-0.214,0.085c0.013-0.045-0.026-0.172-0.028-0.165c1.09-0.122,2.597,0.564,3.762,0.906
			c2.423,0.713,4.883,1.301,7.356,1.812C305.267,230.166,309.054,230.762,312.858,231.102z"/>
		<path style="fill:#231815;" d="M299.038,185.15c4.466,2.443,8.98,4.808,13.621,6.905c2.848,1.287,7.839,4.49,10.956,2.888
			c3.956-2.033,2.899-9.541,2.467-13.084c-0.262-2.145-0.648-4.275-1.112-6.385c-0.169-0.77-1.363-3.782-0.923-4.261
			c-0.06,0.066,3.273,6.218,3.525,6.922c1.24,3.468,1.828,7.19,1.615,10.871c-0.19,3.289-1.131,7.027-4.259,8.717
			c-2.952,1.594-6.491,0.165-9.41-0.827c-3.766-1.279-28.523-14.58-28.091-15.228C288.242,180.542,297.829,184.727,299.038,185.15z"
			/>
		<path style="fill:#231815;" d="M192.768,315.712c1.934,4.974,3.118,10.504,2.073,15.82c-0.473,2.408-1.399,4.782-3.007,6.669
			c-0.24,0.282-3.459,3.315-3.877,2.527c-0.153-0.288,1.571-3.564,1.788-4.131c0.616-1.607,1.291-3.2,1.626-4.895
			c0.634-3.2-0.278-6.143-0.494-9.294c-0.207-3.021-1.682-5.367-2.649-8.153c-0.589-1.698-0.787-2.608,1.15-1.598
			C190.632,313.31,191.833,314.655,192.768,315.712z"/>
		<path style="fill:#231815;" d="M306.921,328.93c-1.131-3.437-2.675-6.836-4.82-9.767c-0.798-1.091-4.035-5.584-5.187-3.05
			c-0.79,1.738,1.233,5.683,1.806,7.405c1.243,3.737,2.508,7.472,3.47,11.294c4.043,16.051,3.12,32.686-0.991,48.623
			c-4.21,16.32-12.553,31.165-16.729,47.446c-3.948,15.393-4.191,34.052,10.52,43.854c6.709,4.471,15.151,6.167,22.998,7.384
			c7.371,1.143,15.418,0.235,22.267,3.616c3.074,1.518,6.215,3.742,7.35,7.124c0.255,0.758,0.274,3.042,1.228,3.2
			c1.178,0.195,1.957-2.266,2.107-2.991c1.568-7.598-7.564-12.744-13.599-14.317c-7.808-2.035-16.31-0.813-24.302-1.988
			c-6.872-1.01-13.859-2.701-19.168-7.459c-11.284-10.114-8.872-27.521-5.182-40.557c4.21-14.872,11.704-28.621,16.324-43.379
			C310.703,367.193,313.078,347.326,306.921,328.93z"/>
		<path style="fill:#231815;" d="M338.515,489.674c1.276,2.124,3.249,4.541,2.014,7.176c-0.28,0.598-1.469,2.199-2.357,1.863
			c-0.775-0.293,0.143-1.733,0.225-2.518c0.176-1.675-0.736-2.915-1.413-4.394C335.756,489.116,335.712,488.79,338.515,489.674z"/>
		<path style="fill:#231815;" d="M327.104,492.145c2.148,1.287,3.756,3.781,3.905,6.302c0.09,1.52-1.027,5.456-3.415,4.357
			c0.343,0.158,1.124-3.502,1.091-3.88c-0.092-1.07-0.832-2.339-1.432-3.193c-0.546-0.777-2.517-1.558-2.771-2.221
			C323.982,492.206,326.001,492.079,327.104,492.145z"/>
		<path style="fill:#231815;" d="M260.008,329.378c-5.963,3.69-8.219,13.827-9.038,20.231c-0.999,7.808,0.483,15.382,1.891,23.036
			c1.4,7.613,2.783,14.892,2.068,22.68c-0.783,8.523-3.23,16.843-6.016,24.9c-2.606,7.539-5.671,14.913-8.221,22.47
			c-2.403,7.121-4.603,14.994-3.403,22.564c2.553,16.111,18.998,21.169,32.655,24.27c5.737,1.302,12.738,2.609,17.022,7.031
			c2.648,2.733,3.157,5.887,3.883,9.444c0.126,0.618,0.271,2.761,1.363,2.741c1.186-0.022,1.422-3.452,1.454-4.111
			c0.755-15.983-21.451-17.614-32.323-20.9c-6.897-2.084-14.262-6.01-17.981-12.451c-3.342-5.789-2.917-12.87-1.813-19.237
			c1.188-6.85,4.175-13.427,6.865-19.787c3.227-7.63,6.616-15.226,9.068-23.152c2.128-6.878,3.017-13.756,3.115-20.955
			c0.103-7.603-1.506-15.066-2.012-22.631c-0.482-7.206-0.564-14.59,0.685-21.724c0.653-3.73,1.004-8.057,2.855-11.413
			c0.537-0.974,2.181-2.199,1.419-3.335C262.83,327.988,260.784,328.785,260.008,329.378z"/>
		<path style="fill:#231815;" d="M194.762,367.932c-0.903,4.094-1.504,8.251-2.586,12.306c-0.391,1.466-1.646,7.701-3.57,8.17
			c-0.335,0.081,0.607-6.935,0.69-7.289c0.639-2.71,0.752-5.518,1.377-8.201c0.615-2.637,1.011-5.97,2.158-8.391
			C194.426,361.159,194.535,366.526,194.762,367.932z"/>
		<path style="fill:#231815;" d="M200.405,394.082c-0.717,4.94-0.995,9.934-2.05,14.823c-0.078,0.364-3.857,11.578-4.92,10.538
			c-0.148-0.145,0.589-3.228,0.636-3.496c0.427-2.412,1.184-4.745,1.632-7.153c0.545-2.932,0.447-5.92,1.037-8.819
			c0.356-1.748,0.621-3.475,0.832-5.25c0.152-1.28,0.082-4.843,1.21-5.811c0.857-0.735,0.348-0.497,0.911,0.24
			C200.352,390.014,200.2,392.917,200.405,394.082z"/>
		<path style="fill:#231815;" d="M203.85,428.057c2.979,20.042-4.147,44.185,10.172,61.331c5.754,6.89,15.72,11.192,24.042,14.031
			c9.874,3.368,20.149,6.118,30.363,8.225c0.166,0.687-11.751-0.085-12.6-0.19c-5.316-0.659-10.63-1.699-15.744-3.305
			c-9.15-2.873-18.652-7.376-25.604-14.085c-12.985-12.531-14.722-34.387-15.081-51.483c-0.098-4.644-0.168-9.577,1.493-13.997
			c0.216-0.573,0.942-2.856,1.692-2.949C203.493,425.522,203.748,427.397,203.85,428.057z"/>
		<path style="fill:#231815;" d="M271.032,502.617c2.514,0.994,5.041,2.874,5.526,5.709c0.705,4.12-1.225,1.609-2.367-0.046
			c-0.913-1.325-2.225-2.372-3.582-3.202C268.55,503.82,268.392,503.288,271.032,502.617z"/>
		<path style="fill:#231815;" d="M282.182,500.18c1.75,1.863,4.637,4.209,3.445,7.152c-0.274,0.677-1.606,2.417-2.562,1.986
			c-0.777-0.35,0.485-2.09,0.426-2.973c-0.091-1.358-1.751-2.985-2.654-4.047C278.86,499.969,279.637,499.848,282.182,500.18z"/>
		<path style="fill:#231815;" d="M230.82,221.64c-4.847-0.377-6.782,4.662-8.385,8.168c-1.656,3.623-3.565,7.151-5.297,10.742
			c-3.662,7.59-7.382,15.211-9.63,23.357c-4.385,15.887-11.253,31.136-13.398,47.588c-0.242,1.853,0.17,9.18-2.076,9.738
			c-3.375,0.839-2.841-7.334-2.576-8.846c1.331-7.594,3.788-15.199,6.139-22.52c2.304-7.175,4.622-14.512,7.898-21.312
			c3.323-6.898,5.425-14.476,8.164-21.625c1.467-3.828,2.928-7.679,4.728-11.365c1.915-3.923,1.962-8.391,3.039-12.589
			c1.147-4.467,3.694-9.062,8.988-8.98c5.048,0.078,3.633,4.464,3.41,7.899C231.893,220.819,231.264,220.982,230.82,221.64z"/>
		<path style="fill:#231815;" d="M155.679,317.317c-4.592,6.765-6.882,16.095-6.007,24.219c0.293,2.721,1.052,6.499,4.038,7.46
			c0.966,0.311,2.1,0.164,3.075,0.003c0.568-0.094,3.963-0.664,4.116-0.975c-0.894,1.817-4.695,3.475-6.605,3.63
			c-2.907,0.236-5.153-1.618-6.412-4.11c-2.787-5.517-2.576-14.142-0.903-19.994c1.58-5.524,4.693-11.985,8.776-16.022
			c0.709-0.701,5.357-4.522,4.259-1.745c-0.466,1.178-1.899,2.466-2.545,3.615C156.764,314.656,156.195,315.971,155.679,317.317z"/>
		<path style="fill:#231815;" d="M161.364,348.075c-0.366,1.788,1.533,3.269,3.027,3.734c1.271,0.396,4.095-0.542,5.048,0.082
			c0.774,0.507-0.095,1.873-0.968,2.584c-1.537,1.251-4.053,0.993-5.827,0.477c-3.038-0.885-4.626-2.897-4.812-6.116
			c-0.058-1.008,0.107-3.433,1.49-3.668C160.697,344.933,160.514,347.177,161.364,348.075z"/>
		<path style="fill:#231815;" d="M173.525,346.264c-0.366,1.788,1.535,3.269,3.028,3.734c1.271,0.396,4.094-0.542,5.047,0.082
			c0.775,0.507-0.095,1.874-0.968,2.584c-1.537,1.25-4.052,0.993-5.826,0.477c-3.039-0.885-4.626-2.897-4.812-6.117
			c-0.058-1.008,0.105-3.432,1.489-3.668C172.858,343.122,172.676,345.366,173.525,346.264z"/>
		<path style="fill:#231815;" d="M326.678,113.426c5.921-3.421,12.243-6.321,18.797-8.295c3.216-0.969,6.538-1.74,9.899-1.937
			c1.323-0.077,2.699-0.096,4.016,0.087c0.452,0.063,2.272,0.767,2.447,0.689c-0.624,0.277-1.825,0.155-2.532,0.281
			c-1.786,0.318-3.552,0.762-5.325,1.144c-4.847,1.045-9.566,2.363-14.066,4.48c-3.163,1.489-6.48,2.616-9.56,4.283
			c-0.331,0.179-8.891,5.527-9.036,5.259C320.729,118.325,325.819,114.152,326.678,113.426z"/>
		<path style="fill:#231815;" d="M327.949,120.586c7.123-1.234,14.217-2.701,21.431-3.312c3.457-0.292,6.969-0.439,10.422-0.017
			c1.279,0.157,2.586,0.352,3.819,0.74c0.436,0.138,2.374,1.345,2.63,1.301c-1.422,0.243-3.418-0.297-4.948-0.26
			c-2.356,0.057-4.718,0.117-7.072,0.231c-4.497,0.218-8.895,0.887-13.299,1.784c-3.125,0.636-6.332,0.8-9.478,1.372
			c-0.31,0.057-11.294,2.085-11.211,1.362C320.366,122.705,326.755,121.046,327.949,120.586z"/>
		<path style="fill:#231815;" d="M329.528,127.523c6.989-0.004,13.994,0.014,20.964,0.575c3.107,0.25,6.231,0.579,9.288,1.201
			c0.236,0.048,3.081,0.979,3.148,0.936c-1.422,0.902-5.699,0.498-7.258,0.47c-4.583-0.084-9.133-0.566-13.726-0.439
			c-2.75,0.076-5.412-0.227-8.155-0.288c-2.368-0.053-4.736,0.08-7.104,0.018c-1.034-0.027-3.402,0.222-4.194-0.579
			C322.451,129.377,328.655,127.715,329.528,127.523z"/>
		<path style="fill:#231815;" d="M314.997,136.745c1.605,0.322,1.686,1.793,2.046,3.101c0.503,1.827,0.958,2.899,2.144,4.217
			c0.988,1.098,2.648,2.024,2.905,3.601c0.316,1.94-1.263,2.093-2.993,1.278c-2.329-1.097-3.163-4.483-4.759-6.427
			c-0.684-0.833-2.399-1.904-2.625-2.888C311.353,138.055,313.492,136.601,314.997,136.745z"/>
		<path style="fill:#231815;" d="M301.288,124.796c1.909,0.353,5.711-2.188,7.267-1.274c1.604,0.942-1.439,2.436-2.491,2.914
			c-1.7,0.773-2.617,1.149-4.511,0.844c-0.634-0.102-2.266-0.245-2.1-1.301C299.513,125.589,300.947,125.07,301.288,124.796z"/>
		<path style="fill:#231815;" d="M278.514,144.076c-0.721,0.855-6.646,9.424-8.521,7.253c-0.478-0.554,4.082-5.877,4.681-6.658
			c0.439-0.571,2.605-3.491,3.453-3.369C279.377,141.48,278.595,143.047,278.514,144.076z"/>
		<path style="fill:#231815;" d="M260.83,149.084c-1.19,2.279-2.759,5.453-5.671,5.785c-3.244,0.37-0.026-1.954,0.817-2.855
			c0.958-1.023,1.618-2.411,2.431-3.554C259.888,146.381,260.288,146.715,260.83,149.084z"/>
		<path style="fill:#231815;" d="M241.25,152.847c-1.222,1.359-6.023,8.532-8.43,7.234c-0.615-0.332,3.955-6.152,4.442-6.74
			c0.677-0.817,2.174-2.722,3.116-3.031C242.28,149.688,241.407,151.517,241.25,152.847z"/>
		<path style="fill:#231815;" d="M199.839,59.244c0.391-2.35,2.148-4.595,3.531-6.455c1.416,1.542,3.817,1.821,5.279,3.327
			c2.177-4.364,9.713-12.011,4.266-16.645c4.386-2.102,6.215,1.489,9.055,4.088c3.739,3.423,9.396,3.086,12.618-0.925
			c8.552-10.646-4.663-20.287-13.136-24.245c-4.905-2.291-10.035-4.193-14.682-7.002c-0.939-0.567-1.86-1.166-2.735-1.829
			c-0.766-0.581-1.752-1.961-2.612-2.299c-0.957-0.376-0.505-0.407-1.408,0.211c-0.525,0.36-0.941,1.159-1.254,1.696
			c-3.96,6.786-3.691,16.774-3.6,24.336c0.063,5.202,0.413,10.434,1.283,15.567C196.999,52.339,197.586,56.622,199.839,59.244z"/>
		<path style="fill:#231815;" d="M239.244,43.919c0.525-1.457,1.839-2.468,2.167-4.047c1.121,2.784,3.929,3.662,5.738,5.824
			c1.546-2.141,2.561-5.969,4.881-7.411c1.714-1.065,4.531-1.119,5.564,0.688c0.814,1.423,0.544,3.487,1.81,4.702
			c1.925,1.847,4.603-0.279,6.188-1.592c0.638,1.666,2.28,2.692,2.962,4.295c2.633-7.929,3.775-18.783,0.657-26.721
			c-2.411-6.14-6.198-13.363-11.129-17.846c-9.8-8.91-17.851,17.664-19.046,23.221C237.898,30.323,235.961,38.972,239.244,43.919z"
			/>
		<path style="fill:#231815;" d="M245.325,241.759c0.116,1.577,4.862,14.12,3.921,14.426c-1.67,0.542-5.282-8.325-5.68-9.737
			c-0.469-1.66-0.881-3.987-0.757-5.662c0.035-0.468,0.094-1.988,0.849-2.031C243.996,238.737,245.069,241.363,245.325,241.759z"/>
		<path style="fill:#231815;" d="M258.181,253.199c0.928,2.589,2.572,4.906,4.106,7.163c0.786,1.157,1.64,2.287,2.34,3.5
			c0.123,0.214,0.942,2.142,0.882,2.092c-0.458-0.411-1.386-0.498-1.933-0.826c-1.31-0.787-2.17-2.052-3.097-3.233
			c-1.088-1.385-2.328-2.676-3.091-4.251c-0.559-1.152-2.895-5.156-2.026-6.342C256.178,250.187,257.346,252.446,258.181,253.199z"
			/>
		<path style="fill:#231815;" d="M275.865,260.417c1.613,2.682,3.11,6.18,2.035,9.336c-1.135,3.33-1.727,0.741-1.949-1.231
			c-0.214-1.905-0.746-3.756-1.444-5.527c-0.219-0.556-2.099-2.745-1.307-3.469C273.663,259.102,275.398,260.184,275.865,260.417z"
			/>
		<path style="fill:#231815;" d="M282.677,252.304c0.697-1.287,3.69-10.7,5.646-10.316c1.306,0.256-1.672,8.037-2.044,8.852
			c-0.429,0.941-1.629,4.012-2.721,4.221C282.272,255.307,282.767,253.273,282.677,252.304z"/>
		<path style="fill:#231815;" d="M267.835,126.395c-1.155-8.083,2.31-11.548,5.774-10.97c3.464,0.577,2.887,9.816,2.887,9.816
			C274.764,123.508,271.877,122.93,267.835,126.395z"/>
	</g>
</g>
</svg>
