<?xml version="1.0" encoding="iso-8859-1"?>
<!-- Generator: Adobe Illustrator 21.1.0, SVG Export Plug-In . SVG Version: 6.00 Build 0)  -->
<svg version="1.1" id="_x37_" xmlns="http://www.w3.org/2000/svg" xmlns:xlink="http://www.w3.org/1999/xlink" x="0px" y="0px"
	 viewBox="0 0 512 512" style="enable-background:new 0 0 512 512;" xml:space="preserve">
<g>
	<path style="fill:#FFFFFF;" d="M201.415,151.926c-11.517-6.581-11.472-13.199-17.276-24.679
		c-5.804-11.481-4.113-27.97,2.468-33.729c6.581-5.758,21.223-18.099,36.197-15.63c14.974,2.468,15.63-2.468,15.63-2.468
		s3.522-7.772,4.113-17.276c0.591-9.503,9.872-32.906,24.68-44.423c14.808-11.517,18.921-3.291,18.921-3.291
		s4.113,12.34,1.645,24.68c-2.468,12.34-6.581,24.68-5.759,27.97c0.823,3.291,13.162-18.098,18.921-23.857
		c5.758-5.759,33.427-25.33,42.778-19.744c9.351,5.586,6.581,27.97-1.645,41.132c-8.227,13.162-17.276,20.566-27.97,28.793
		c-10.694,8.227-28.793,12.34-32.083,15.63c-3.291,3.291-6.581,5.759-6.581,5.759s4.936,10.695,18.098,20.566
		s36.102,31.745,49.359,56.763c13.257,25.018,19.497,46.378,21.389,58.408c1.892,12.03,10.694,24.679,19.744,28.793
		c9.049,4.113-6.581,13.162-13.985,13.162c-7.404,0,1.848,38.316-8.227,54.295c-10.074,15.979-11.517,32.083-14.808,40.31
		c-3.291,8.226-9.872,22.212,4.113,40.31c13.985,18.098,28.793,32.083,30.438,50.182s-8.993,21.847-19.744,24.68
		s-20.566,9.049-29.615,11.517c-9.049,2.468-13.162-1.645-13.162-1.645s-8.676,2.914-13.162,0c-4.486-2.914-15.63-2.468-15.63-2.468
		s-4.113-9.049,9.872-13.985c13.985-4.936,27.97-7.404,37.019-15.63c9.049-8.227,8.227-22.211-4.113-32.083
		c-12.34-9.872-35.374-32.083-41.132-40.31c-5.759-8.227-15.63-27.97-15.63-27.97l-1.645,33.729c0,0-2.1,8.816-4.936,16.453
		c-2.836,7.637-4.113,6.581-6.581,20.566c-2.468,13.985-7.404,18.098-20.566,23.034c-13.162,4.936-32.92,12.904-37.842,12.34
		c-4.922-0.564-4.936-2.468-4.936-2.468s-1.211,1.44-5.758-1.645c-4.548-3.086,1.645,4.936-9.872,0
		c-11.517-4.936-3.291-19.744,2.468-21.389c5.759-1.645,14.808,2.468,25.502-0.823c10.694-3.291,18.098-9.049,22.211-20.566
		c4.113-11.517,1.645-27.148-2.468-37.842c-4.113-10.694-13.985-33.729-13.985-45.246s5.759-28.793,15.63-41.133
		c9.872-12.34,20.566-19.744,25.502-22.212c4.936-2.468,4.113-9.872,4.113-14.808c0-4.936-7.404-32.906-7.404-32.906
		s-2.021,22.755-12.34,30.438c-10.319,7.684-11.517-0.823-11.517-0.823s-2.28,5.174-8.227,6.581
		c-5.947,1.408-5.759-1.645-5.759-1.645s0.7,4.717-5.758,4.113c-6.459-0.604-4.936-4.113-4.936-4.113s-4.724-0.547-6.581-3.291
		c-1.857-2.744,0.823-4.936,7.404-7.404c6.581-2.468,17.276-0.823,20.566-6.581c3.291-5.759,4.113-5.759,4.113-16.453
		c0-10.695,4.943-32.249-4.113-44.423c-9.056-12.174-1.645-10.694-8.227-22.212c-4.898-8.571,0-7.404-4.936-14.808
		C210.465,152.748,201.415,151.926,201.415,151.926z"/>
	<path style="fill:#ED7342;" d="M200.593,141.231c-3.291-1.645-7.523-12.371-4.936-14.808c2.587-2.437,12.282,2.195,13.985,5.759
		c1.703,3.564-0.823,7.404-0.823,7.404L200.593,141.231z"/>
	<g>
		<path style="fill:#231815;" d="M224.155,79.594c-10.449-0.131-23.27,4.154-33.244,12.883c-5.078,4.2-9.46,9.448-9.614,15.518
			c-0.2,3.014,0.507,6.183,1.353,9.283c0.431,1.555,0.935,3.102,1.457,4.636c0.524,1.565,1.042,3.114,1.556,4.644
			c1.982,6.084,3.857,11.084,5.928,14.911c2.038,3.838,4.282,6.399,6.296,7.79c2.015,1.408,3.68,1.746,4.449,1.947
			c0.786,0.198,0.722,0.295-0.23,0.247c-0.941-0.08-2.144-0.157-3.653-0.663c-1.495-0.503-3.307-1.436-5.156-3.12
			c-3.772-3.321-7.46-9.506-10.632-18.699c-1.545-4.58-3.287-8.842-4.329-13.205c-1.106-4.285-1.369-8.801-0.184-12.725
			c1.151-3.93,3.377-6.946,5.428-9.342c0.51-0.618,1.034-1.178,1.557-1.7c0.522-0.522,1-1.071,1.516-1.517
			c1.011-0.929,1.949-1.791,2.81-2.583c3.627-2.97,4.836-3.627,8.089-5.335c0.829-0.399,1.774-0.891,2.95-1.442
			c1.21-0.48,2.593-1.146,4.336-1.781c0.875-0.308,1.827-0.642,2.864-1.007c1.045-0.343,2.205-0.625,3.449-0.983
			c1.236-0.385,2.632-0.571,4.106-0.901c1.48-0.31,3.111-0.432,4.844-0.681c7.012-0.576,12.641,0.436,16.748,1.689
			c1.015,0.359,1.956,0.692,2.824,0.999c0.862,0.314,1.604,0.733,2.297,1.054c0.68,0.347,1.294,0.66,1.845,0.94
			c0.522,0.336,0.976,0.641,1.367,0.915c3.115,2.187,2.171,2.387-1.311,0.861c-0.854-0.424-1.874-0.667-2.887-1.017
			c-0.512-0.162-1.034-0.328-1.562-0.495c-0.542-0.118-1.092-0.238-1.642-0.358c-2.184-0.54-4.467-0.755-6.483-0.924
			c-1.013-0.026-1.969-0.05-2.831-0.072c-0.858-0.03-1.629,0.078-2.265,0.099C224.921,79.541,224.155,79.594,224.155,79.594z"/>
		<path style="fill:#231815;" d="M283.28,57.494c1.817-2.428,3.746-4.914,5.793-7.424c2.115-2.509,4.338-4.912,6.664-7.343
			c4.664-4.84,9.86-9.627,15.791-13.843c5.91-4.239,12.654-7.676,19.732-10.31c3.55-1.29,7.169-2.456,10.838-3.441
			c1.828-0.536,3.679-0.953,5.525-1.433l1.388-0.333l1.574-0.362l5.423-1.24l-0.178,4.892l-0.063,1.776l-0.06,1.262
			c-0.093,1.685-0.169,3.37-0.316,5.061c-0.23,3.378-0.654,6.764-1.148,10.141c-1.121,6.733-2.821,13.471-5.683,19.723
			c-2.821,6.254-6.588,12.049-11.103,16.977c-2.315,2.525-4.447,4.652-6.559,7.038c-2.116,2.349-4.259,4.755-6.606,6.972
			c-5.021,4.799-10.643,8.171-15.936,10.535c-2.656,1.191-5.241,2.19-7.732,3.045c-1.242,0.412-2.456,0.815-3.641,1.207
			c-1.151,0.372-2.275,0.734-3.358,1.129c-4.348,1.53-8.159,3.208-11.549,4.694c-3.386,1.498-6.346,2.825-8.907,3.879
			c-5.124,2.115-8.6,3.164-10.277,3.565c-1.674,0.416-1.544,0.264,0.347-0.394c1.893-0.67,4.204-1.657,7.113-3.114
			c2.916-1.442,6.411-3.383,10.833-5.735c4.404-2.348,9.875-5.067,16.741-7.501c3.38-1.212,6.959-2.749,10.703-4.647
			c3.729-1.926,7.576-4.317,11.238-7.523c3.214-2.8,5.978-5.989,8.766-9.131c0.706-0.781,1.408-1.557,2.105-2.328
			c0.713-0.756,1.422-1.508,2.126-2.254c1.353-1.464,2.698-2.897,3.877-4.431c1.263-1.469,2.292-3.074,3.392-4.588
			c0.965-1.603,2.002-3.129,2.807-4.753c1.747-3.171,3.062-6.425,4.144-9.609c2.129-6.392,3.183-12.563,3.742-18.16
			c0.288-2.8,0.465-5.459,0.577-7.961c0.045-1.253,0.112-2.458,0.131-3.63l0.006-0.379l-0.006-0.056l-0.012-0.101l-0.027-0.169
			c-0.117,0.041-0.222,0.077-0.316,0.11c-0.851,0.21-1.612,0.398-2.313,0.57c-1.41,0.38-2.568,0.692-3.677,0.991
			c-4.436,1.273-7.246,2.162-9.807,3.006c-2.551,0.861-4.877,1.626-8.173,3.009c-3.287,1.387-7.621,3.31-13.569,7.453
			c-3.003,2.024-6.309,4.743-10.057,8.19c-1.879,1.723-3.814,3.69-5.89,5.837c-1.015,1.1-2.065,2.241-3.158,3.427
			c-1.04,1.218-2.14,2.429-3.202,3.798c-4.298,5.397-7.911,10.568-11.391,15.031c-3.462,4.476-6.724,8.312-9.901,11.367
			c-6.298,6.189-12.094,9.137-15.857,10.213c-0.468,0.147-0.9,0.283-1.3,0.409c-0.413,0.082-0.797,0.139-1.141,0.195
			c-0.692,0.108-1.245,0.18-1.665,0.219c-0.841,0.076-1.154,0.021-0.997-0.147c0.158-0.168,0.788-0.448,1.842-0.819
			c0.522-0.205,1.176-0.351,1.885-0.666c0.707-0.314,1.511-0.671,2.41-1.07c3.539-1.701,7.264-4.442,10.577-7.732
			c3.325-3.283,6.324-7.005,8.837-10.488c2.525-3.476,4.649-6.64,6.181-8.929C282.349,58.881,283.28,57.494,283.28,57.494z"/>
		<path style="fill:#231815;" d="M240.738,58.212c0.689-2.951,1.468-6.134,2.402-9.572c1.007-3.483,2.364-6.946,3.89-10.414
			c3.083-6.903,6.939-13.77,11.488-19.367c4.537-5.604,9.038-8.578,11.991-9.536c1.464-0.517,2.502-0.567,2.986-0.542
			c0.484,0.022,0.458,0.134-0.051,0.284c-1.035,0.276-2.416,1.218-4.261,3.009c-1.866,1.779-4.196,4.455-7.37,8.466
			c-3.166,4.033-5.514,8.071-7.322,11.581c-1.798,3.523-3.028,6.553-3.822,8.814c-0.781,2.266-1.133,2.85-1.947,4.536
			c-0.4,0.843-0.923,1.965-1.538,3.723c-0.305,0.861-0.607,1.921-0.963,3.232c-0.348,1.295-0.734,2.798-1.112,4.559
			c-0.387,1.752-0.697,3.36-1.117,4.865c-0.425,1.496-0.921,2.751-1.387,3.801c-0.938,2.105-1.753,3.498-2.37,4.341
			c-1.233,1.681-1.67,1.133-1.115-0.89c0.542-2.019,1.153-4.784,1.398-6.963c0.124-1.086,0.159-2.046,0.186-2.76
			C240.724,58.651,240.738,58.212,240.738,58.212z"/>
		<path style="fill:#231815;" d="M290.455,10.774c0.916,5.49,1.336,12.239,0.531,19.119c-0.755,6.88-2.632,13.815-4.996,19.764
			c-2.395,5.945-4.62,9.772-5.937,12.025c-1.301,2.246-1.944,2.878-1.628,1.986c0.313-0.888,0.404-2.361,0.911-4.714
			c0.488-2.354,1.409-5.558,3.033-9.945c1.623-4.394,2.69-8.458,3.391-11.942c0.266-1.756,0.59-3.345,0.689-4.785
			c0.108-1.438,0.229-2.697,0.243-3.768c-0.041-2.146,0.146-2.734,0.383-4.399c0.08-0.832,0.175-1.933,0.258-3.631
			c0.063-0.85-0.051-1.84-0.096-3.024c-0.036-0.592-0.075-1.23-0.117-1.92c-0.057-0.689-0.211-1.418-0.329-2.209
			c-0.402-3.182-1.109-5.64-1.371-7.629c-0.464-1.931-0.716-3.342-0.757-4.286c-0.094-1.887,0.559-1.851,1.402-0.121
			c0.419,0.862,0.942,1.86,1.493,2.882c0.568,1.016,0.958,2.122,1.42,3.09c0.441,0.982,0.83,1.851,1.111,2.475
			C290.316,10.384,290.455,10.774,290.455,10.774z"/>
		<path style="fill:#231815;" d="M279.407,112.279c0.506,1.77,1.589,3.615,3.132,5.275c1.501,1.679,3.438,3.397,4.895,5.284
			c2.935,3.806,2.744,6.34,2.327,5.772c-0.458-0.542-2.527-0.63-4.827-3.137c-2.34-2.495-4.632-4.217-6.04-5.376
			c-0.706-0.567-0.78-0.852-1.062-1.505c-0.239-0.683-0.806-1.705-1.868-4.098c-1.036-2.408-0.905-4.021-0.578-4.816
			c0.339-0.801,0.958-0.836,1.347-0.237c0.383,0.606,1.035,1.354,1.617,1.905C278.908,111.916,279.407,112.279,279.407,112.279z"/>
		<path style="fill:#231815;" d="M231.985,179.739c2.922,5.65,5.761,12.016,8.566,18.781c2.815,6.76,5.577,13.93,8.635,21.051
			c0.749,1.791,1.567,3.543,2.367,5.311c0.859,1.823,1.641,3.751,2.335,5.622c1.4,3.772,2.61,7.574,3.716,11.379
			c2.198,7.608,3.943,15.222,5.093,22.588c1.13,7.366,1.53,13.757,1.189,19.084c-0.333,5.308-1.451,9.615-3.309,12.397
			c-0.897,1.395-1.981,2.344-2.922,2.897c-0.942,0.568-1.734,0.753-2.228,0.839c-1.006,0.122-0.909,0.007,0.164-0.329
			c1.054-0.395,2.299-1.241,3.248-2.77c0.962-1.512,1.652-3.61,2-6.287c0.698-5.367,0.217-13.006-1.483-23.792
			c-1.753-10.794-4.388-20.353-7.026-28.302c-1.339-3.96-2.685-7.566-4.106-10.553c-0.754-1.559-1.463-3.025-2.123-4.392
			c-0.642-1.382-1.239-2.664-1.786-3.842c-2.153-4.718-2.593-6.129-3.95-9.943c-0.677-1.905-1.576-4.413-3.048-8.212
			c-1.507-3.778-3.503-8.902-6.886-15.745c-3.393-6.836-6.529-12.007-9.161-15.852c-1.37-1.877-2.493-3.529-3.579-4.786
			c-0.516-0.659-0.981-1.254-1.398-1.787c-0.43-0.521-0.842-0.95-1.177-1.354c-2.727-3.194-1.864-3.23,1.614-0.377
			c3.372,2.927,7.412,7.375,10.34,11.283c1.414,1.975,2.726,3.709,3.54,5.017C231.467,178.957,231.985,179.739,231.985,179.739z"/>
		<path style="fill:#231815;" d="M302.238,133.332c-0.736-0.587-1.457-1.134-2.155-1.639c-0.744-0.46-1.468-0.874-2.158-1.249
			c-1.4-0.726-2.586-1.398-3.778-1.672c-2.308-0.648-3.822-0.677-4.309-0.161c-0.489,0.515,0.029,1.575,1.704,3.076
			c0.419,0.378,0.916,0.77,1.48,1.213c0.54,0.502,1.157,1.04,1.852,1.614c0.69,0.587,1.488,1.153,2.322,1.856
			c0.822,0.728,1.727,1.5,2.723,2.318c1.031,0.801,1.99,1.702,2.954,2.581c0.97,0.871,1.934,1.737,2.896,2.601l2.808,2.699
			l1.42,1.336l1.374,1.396c0.924,0.928,1.852,1.859,2.786,2.796c0.94,0.933,1.826,1.935,2.76,2.908
			c1.878,1.939,3.704,3.999,5.587,6.13c1.913,2.104,3.725,4.404,5.69,6.735c1.855,2.412,3.862,4.867,5.763,7.58
			c3.889,5.361,7.876,11.414,11.62,18.551c1.806,3.583,3.605,7.237,4.906,10.948c1.244,3.768,2.193,7.676,3.131,11.529
			c1.857,7.72,3.589,15.31,5.6,22.43c2.005,7.12,4.23,13.797,6.981,19.654c1.354,2.934,2.876,5.649,4.562,8.076
			c1.681,2.422,3.51,4.59,5.586,6.262c0.472,0.439,0.996,0.797,1.516,1.125c0.523,0.322,0.991,0.678,1.517,0.914
			c1.05,0.471,1.993,0.935,2.952,1.108c0.469,0.112,0.912,0.208,1.33,0.289c0.424,0.059,0.836,0.051,1.212,0.063
			c0.758-0.004,1.398,0.013,1.935-0.163c2.151-0.56,2.381-1.379,1.115-2.171c-0.314-0.198-0.722-0.395-1.214-0.58
			c-0.488-0.22-1.046-0.53-1.692-0.784c-0.33-0.104-0.647-0.347-1-0.524c-0.345-0.204-0.728-0.354-1.103-0.6
			c-0.371-0.258-0.763-0.517-1.179-0.778c-0.421-0.247-0.809-0.641-1.252-0.961c-1.72-1.398-3.628-3.368-5.618-6.075
			c-1.994-2.7-4.067-6.108-6.213-10.206c-2.292-4.396-3.866-8.497-5.23-12.539c-1.352-4.053-2.452-8.084-3.567-12.563
			c-1.085-4.507-2.269-9.435-3.683-15.311c-0.75-2.952-1.55-6.139-2.764-9.665c-0.633-1.818-1.458-3.498-2.259-5.346
			c-0.838-1.814-1.809-3.643-2.792-5.579c-3.277-6.096-6.924-12.01-10.677-17.733c-3.734-5.736-7.7-11.192-11.652-16.334
			c-3.931-5.161-8.039-9.861-11.97-14.161C309.991,140.136,306.135,136.309,302.238,133.332z"/>
		<path style="fill:#231815;" d="M372.85,274.759c0.601,0.866,1.617,1.676,2.787,2.244c1.167,0.588,2.457,0.954,3.666,1.25
			c1.205,0.301,2.105,0.576,2.661,0.806c0.554,0.231,0.753,0.452,0.547,0.462c-0.39-0.012-1.194,1.095-3.391,0.799
			c-2.155-0.309-3.859-0.871-4.895-1.204c-0.521-0.166-0.615-0.318-0.916-0.611c-0.278-0.327-0.798-0.769-1.882-1.893
			c-1.075-1.151-1.293-2.13-1.239-2.627c0.055-0.507,0.399-0.608,0.708-0.331c0.3,0.288,0.799,0.584,1.205,0.792
			C372.521,274.643,372.85,274.759,372.85,274.759z"/>
		<path style="fill:#231815;" d="M370.596,284.253c2.419,1.212,6.242,1.486,9.38,1.786c3.154,0.312,4.536,1.042,4.044,1.099
			c-0.486,0.01-1.429,1.042-3.953,0.976c-2.507-0.076-4.536-0.167-5.757-0.18c-0.611-0.004-0.768-0.108-1.205-0.293
			c-0.434-0.207-1.158-0.47-2.845-1.061c-1.688-0.609-2.517-1.365-2.802-1.855c-0.286-0.494-0.045-0.76,0.44-0.649
			c0.483,0.121,1.169,0.17,1.717,0.19C370.171,284.273,370.596,284.253,370.596,284.253z"/>
		<path style="fill:#231815;" d="M218.109,115.137c-3.557-6.131,2.433-21.174,8.987-18.047
			C231.204,100.817,223.526,120.31,218.109,115.137z"/>
		<path style="fill:#231815;" d="M204.992,142.352c1.094-0.118,2.169-0.377,3.184-0.751c0.262-0.08,0.501-0.195,0.752-0.295
			l0.372-0.156c0.151-0.063,0.329-0.135,0.502-0.225l1.046-0.516c0.3-0.202,0.864-0.241,0.712-0.725
			c-0.002-0.755,0.046-1.595,0.004-2.279c-0.075-0.567-0.096-1.115-0.219-1.657c-0.23-1.083-0.583-2.123-1.059-3.062
			c-0.948-1.887-2.281-3.338-3.492-4.416c-1.24-1.04-2.331-1.827-3.084-2.351c-1.48-1.122-3.684-1.932-5.466-1.931
			c-1.796-0.014-3.067,0.721-2.991,2.137c0.055,1.186,1.198,1.863,2.515,2.358c1.334,0.476,2.861,0.861,3.942,0.961
			c0.525,0.062,1.698,0.35,3.024,1.13c1.321,0.762,2.839,2.018,3.753,3.808c0.229,0.443,0.457,0.9,0.589,1.395
			c0.188,0.48,0.278,0.988,0.359,1.499c0.119,0.545,0.088,0.816,0.119,1.242l0.013,0.295l-0.245,0.137l-0.495,0.273
			c-0.3,0.149-0.841,0.398-1.251,0.555c-0.441,0.154-0.864,0.32-1.279,0.407c-0.823,0.233-1.576,0.264-2.192,0.254
			c-1.227-0.084-2.428-0.487-3.355-1.312c-0.942-0.801-1.641-1.926-2.146-3.106c-1.018-2.374-1.386-4.895-1.594-6.798
			c-0.337-3.846-4.643-5.303-2.996,0.832c0.907,3.103,1.629,5.337,2.87,7.606c0.635,1.118,1.423,2.29,2.752,3.283
			C200.935,141.956,202.898,142.564,204.992,142.352z"/>
		<path style="fill:#231815;" d="M270.987,200.468c0.624,0.334,1.452,0.822,2.433,1.429c1.01,0.566,2.07,1.4,3.228,2.325
			c1.168,0.912,2.441,1.904,3.628,3.11c1.206,1.179,2.531,2.341,3.663,3.705c2.411,2.59,4.557,5.458,6.355,7.988
			c1.688,2.614,3.119,4.831,3.801,6.384c1.541,2.988,4.749,8.723,7.469,14.785c2.797,6.035,4.729,12.479,5.519,15.973
			c0.534,2.732,0.887,4.892,0.934,6.624c0.095,1.725,0.182,2.994,0.11,3.948c-0.055,1.906,0.043,2.549,0.899,3.038
			c1.818,1.03,4.029,1.414,4.45-2.197c0.076-0.895,0.052-2.06-0.303-3.263c-0.318-1.211-0.752-2.503-1.177-3.733
			c-0.927-2.445-1.962-4.606-1.831-5.656c0.071-0.527-0.357-2.241-0.976-4.605c-0.284-1.191-0.75-2.499-1.238-3.898
			c-0.504-1.393-0.966-2.903-1.621-4.357c-2.297-5.961-5.649-11.752-6.7-13.701c-1.029-1.97-3.972-6.835-7.167-11.314
			c-0.842-1.088-1.679-2.166-2.473-3.19c-0.399-0.511-0.786-1.009-1.158-1.487c-0.386-0.469-0.786-0.895-1.148-1.311
			c-1.473-1.643-2.576-2.941-3.109-3.462c-0.533-0.521-1.242-1.388-2.069-2.439c-0.412-0.53-0.857-1.1-1.318-1.694
			c-0.509-0.558-1.035-1.137-1.566-1.723c-2.074-2.419-4.715-4.522-6.568-5.419c-1.938-0.795-4.087-0.608-5.44-0.068
			c-1.371,0.549-2.041,1.484-1.387,2.225C267.514,199.949,271.01,200.358,270.987,200.468z"/>
		<path style="fill:#231815;" d="M307.672,192.22c4.918,6.472,10.521,14.517,15.483,23.344c5.001,8.799,9.515,18.258,12.986,27.071
			c3.478,8.813,5.35,15.172,6.334,18.961c0.97,3.795,1.015,5.038,0.508,3.719c-1.047-2.629-4.444-7.39-9.825-20.406
			c-5.426-13.009-10.898-22.859-14.49-28.314c-1.81-2.723-2.201-3.569-3.38-5.849c-1.276-2.21-3.145-6.016-9.048-13.815
			c-2.977-3.875-5.419-6.91-7.31-9.266c-0.916-1.206-1.721-2.213-2.396-3.061c-0.664-0.857-1.176-1.574-1.548-2.153
			c-1.493-2.318-0.756-2.428,1.376-0.536c1.052,0.954,2.357,1.998,3.611,3.14c1.264,1.142,2.55,2.305,3.704,3.346
			C305.935,190.559,307.672,192.22,307.672,192.22z"/>
		<path style="fill:#231815;" d="M311.913,275.241c-1.812,0.196-3.089,0.441-4.018,0.794c-0.928,0.355-1.497,0.796-1.845,1.251
			c-0.697,0.9-0.486,1.784-0.486,1.784s-0.145,1.709-0.421,3.916c-0.29,2.217-0.599,4.87-1.058,7.046
			c-0.116,0.549-0.217,1.157-0.193,1.823c-0.039,0.66,0.089,1.367,0.234,2.096c0.058,0.366,0.237,0.719,0.363,1.084l0.216,0.545
			c0.084,0.187,0.26,0.42,0.388,0.629l0.419,0.646l0.212,0.323c0.082,0.093,0.111,0.261,0.266,0.248
			c0.518,0.096,1.021,0.207,1.551,0.277c2.855,0.43,5.56-0.073,7.059-0.504c1.543-0.404,2.469-1.573,2.457-2.251
			c-0.017-0.714-0.741-0.898-2.532-0.287c-0.911,0.295-2.168,0.656-3.625,0.826c-0.727,0.088-1.5,0.132-2.288,0.116l-1.068-0.051
			l-0.447-0.042c-0.096-0.104-0.186-0.225-0.28-0.341c-0.188-0.231-0.386-0.462-0.537-0.83c-0.145-0.339-0.366-0.644-0.436-1.002
			c-0.096-0.347-0.2-0.685-0.277-1.016c-0.039-0.342-0.075-0.67-0.11-0.983c-0.064-0.626,0.019-1.203,0.053-1.675
			c0.084-0.475,0.205-0.854,0.333-1.109c1.003-2.023,2.132-5.504,3.311-7.42c0.583-0.954,1.262-2.37,1.816-3.593
			C311.524,276.324,311.913,275.241,311.913,275.241z"/>
		<path style="fill:#231815;" d="M323.964,295.74c0.283,1.468,0.593,3.08,0.842,4.797c0.133,0.857,0.237,1.741,0.337,2.643
			l0.064,0.68l0.016,0.161l0.004-0.002l0.008,0.021l0.052,0.029c-0.166-0.101,0.401,0.197,0.719,0.274
			c0.36,0.108,0.718,0.284,1.077,0.33c0.713,0.167,1.424,0.267,2.068,0.21c1.304-0.07,2.358-0.56,3.152-1.461
			c0.814-0.882,1.294-1.992,1.656-2.96c0.313-0.995,0.505-1.858,0.682-2.52c0.248-1.332,0.546-1.831,0.598-1.327
			c0.042,0.5,0.521,1.187,0.836,2.508c0.106,0.329,0.124,0.698,0.172,1.112c0.055,0.415,0.055,0.872-0.006,1.376
			c-0.07,1.004-0.424,2.22-1.273,3.44c-0.853,1.212-2.055,2.164-3.334,2.635c-1.265,0.481-2.552,0.662-3.668,0.577
			c-0.575,0.002-1.095-0.085-1.594-0.174c-0.511-0.064-0.964-0.19-1.394-0.313c-0.43-0.12-0.852-0.216-1.204-0.364
			c-0.621-0.261-1.198-0.503-1.728-0.725c-0.137-0.058-0.27-0.113-0.396-0.166l-0.089-0.043l-0.011-0.093l-0.022-0.18
			c-0.024-0.24-0.046-0.46-0.066-0.666c-0.036-0.416-0.058-0.781-0.068-1.129l-0.007-0.201l0.002-0.123l0.012-0.252
			c0.011-0.174,0.023-0.362,0.037-0.586c0.029-0.888,0.136-2.382-0.595-5.714c-0.766-3.313-1.145-5.332-1.047-6.402
			c0.081-1.061,0.613-1.124,1.16-0.237c0.563,0.892,1.316,2.087,1.931,3.06C323.504,294.946,323.964,295.74,323.964,295.74z"/>
		<path style="fill:#231815;" d="M342.336,286.217c0.211,1.277,0.581,2.803,0.65,4.491c0.066,1.675-0.255,3.521-1.076,4.943
			c-0.834,1.42-1.847,2.048-2.488,2.289c-0.653,0.242-0.966,0.159-0.827,0.004c0.274-0.348,0.086-1.641,0.907-3.271
			c0.822-1.724,0.612-3.329,0.315-4.156c-0.156-0.424-0.077-0.54-0.01-0.89c0.069-0.345,0.192-0.934-0.135-2.257
			c-0.341-1.31-0.345-2.198-0.117-2.717c0.22-0.516,0.64-0.63,0.931-0.284c0.298,0.339,0.766,0.779,1.152,1.159
			C342.037,285.902,342.336,286.217,342.336,286.217z"/>
		<path style="fill:#231815;" d="M347.037,271.327c1.001,1.903,1.921,4.414,1.963,7.094c0.092,2.663-0.515,5.391-1.628,7.542
			c-1.106,2.164-2.352,3.352-3.163,3.943c-0.821,0.59-1.209,0.635-1.011,0.362c0.369-0.585,0.378-2.242,1.706-5.134
			c1.326-2.962,1.283-5.606,0.935-6.961c-0.187-0.686-0.142-0.876-0.093-1.434c-0.03-0.53,0.094-1.517-0.868-3.407
			c-0.987-1.852-1.773-2.922-1.933-3.665c-0.182-0.727,0.158-0.996,0.762-0.613c0.296,0.192,0.674,0.39,1.054,0.615
			c0.37,0.248,0.749,0.503,1.089,0.73c0.365,0.221,0.625,0.481,0.843,0.648C346.908,271.22,347.037,271.327,347.037,271.327z"/>
		<path style="fill:#231815;" d="M234.716,310.312c-4.471,6.279-8.284,14.074-10.718,22.777c-1.229,4.346-2.077,8.925-2.498,13.613
			c-0.428,4.686-0.41,9.491,0.21,14.246c0.278,2.387,0.76,4.723,1.351,7.071c0.622,2.368,1.301,4.735,2.07,7.094
			c1.507,4.72,3.22,9.417,4.895,14.123c3.313,9.404,6.663,18.879,7.71,28.579c0.506,4.827,0.401,9.455-0.587,13.592
			c-0.951,4.141-2.689,7.711-4.714,10.55c-4.192,5.645-8.916,8.56-12.378,10.38c-1.773,0.865-3.239,1.563-4.436,2.018
			c-1.203,0.441-2.092,0.746-2.673,0.926c-1.16,0.359-1.089,0.216,0.188-0.37c1.281-0.59,2.863-1.375,4.771-2.641
			c0.477-0.313,1.003-0.609,1.517-0.987c0.512-0.38,1.053-0.781,1.623-1.206c1.174-0.799,2.303-1.901,3.62-3.014
			c2.457-2.403,5.29-5.51,7.234-10.005c2.015-4.438,3.019-10.206,2.425-17.014c-0.61-6.814-2.405-13.201-4.326-19.094
			c-1.932-5.902-4.025-11.356-5.873-16.426c-1.864-5.064-3.492-9.752-4.732-14.041c-1.277-4.289-1.988-8.295-2.35-11.647
			c-0.381-3.375-0.348-5.561-0.306-7.554c0.085-1.992,0.26-3.796,0.606-6.421c0.41-2.614,0.945-6.064,2.328-11.213
			c0.702-2.569,1.612-5.566,2.979-9.023c1.357-3.457,3.133-7.396,5.66-11.747c5.084-8.704,10.867-14.553,15.79-18.307
			c4.925-3.804,8.975-5.609,11.536-6.551c2.598-0.895,3.737-1.027,3.581-0.707c-0.076,0.166-0.469,0.459-1.153,0.859
			c-0.689,0.391-1.667,0.899-2.87,1.595c-4.925,2.601-10.592,7.461-14.4,12.017c-1.906,2.283-3.456,4.398-4.473,5.979
			C235.275,309.321,234.716,310.312,234.716,310.312z"/>
		<path style="fill:#231815;" d="M285.755,318.219c1.127-2.381,2.079-4.735,2.638-7.056c0.57-2.311,0.677-4.595,0.347-6.446
			c-0.119-0.928-0.434-1.737-0.683-2.428c-0.301-0.68-0.646-1.232-0.94-1.676c-0.686-0.848-1.269-1.25-1.685-1.257
			c-0.422-0.007-0.695,0.385-0.821,1.119c-0.076,0.37-0.052,0.811-0.124,1.361c-0.037,0.541-0.048,1.162-0.147,1.871
			c-0.154,1.419-0.511,3.136-1.374,5.346c-0.853,2.214-2.268,4.932-3.959,8.361c-1.723,3.492-3.386,7.097-4.686,10.847
			c-1.316,3.743-2.306,7.606-2.938,11.539c-0.628,3.934-0.93,7.933-0.906,11.979c0.045,4.046,0.364,8.137,0.928,12.295
			c0.639,4.144,1.385,8.382,2.497,12.689c0.482,2.172,1.16,4.332,1.748,6.561c0.647,2.321,1.624,4.625,2.798,6.794
			c2.362,4.362,5.473,8.395,8.948,12.383c3.484,3.984,7.365,7.915,11.53,11.972c8.329,8.109,17.054,15.815,24.87,23.948
			c3.888,4.07,7.569,8.255,10.513,12.724c1.458,2.233,2.75,4.537,3.605,6.912c0.887,2.364,1.304,4.796,1.093,7.094
			c-0.413,4.65-3.768,8.339-7.544,10.943c-0.488,0.318-0.973,0.635-1.455,0.95c-0.458,0.304-0.869,0.499-1.398,0.752
			c-1.016,0.475-2.104,0.916-3.181,1.344c-2.162,0.853-4.324,1.652-6.433,2.44c-8.451,3.15-16.102,6.052-22.414,9.436
			c-3.07,1.69-5.673,3.465-7.486,5.854c-0.446,0.617-0.833,1.246-1.123,1.999c-0.305,0.801-0.428,1.623-0.371,2.356
			c0.125,1.49,0.969,2.567,1.719,3.148c1.468,1.059,2.468,0.996,2.906,0.806c0.453-0.238,0.342-0.802-0.096-1.641
			c-0.215-0.399-0.501-0.967-0.576-1.403c-0.068-0.426,0.028-0.903,0.321-1.212c0.235-0.217,0.903-0.979,1.906-1.66
			c0.988-0.716,2.282-1.488,3.79-2.297c3.023-1.621,6.917-3.405,11.579-5.448c4.668-2.058,10.115-4.316,16.348-7.162
			c1.673-0.777,3.285-1.517,4.92-2.375c0.41-0.216,0.827-0.447,1.262-0.709c0.491-0.295,0.824-0.557,1.187-0.816
			c0.729-0.507,1.43-1.045,2.105-1.615c1.362-1.112,2.628-2.332,3.742-3.693c1.132-1.335,2.088-2.85,2.801-4.479
			c0.712-1.626,1.187-3.377,1.322-5.147c0.137-1.768-0.012-3.526-0.359-5.219c-0.712-3.39-2.17-6.5-3.956-9.47
			c-7.279-11.889-19.459-22.341-37.099-38.924c-3.491-3.343-6.913-6.772-10.082-10.371c-3.164-3.592-6.11-7.358-8.39-11.364
			c-1.136-2-2.1-4.06-2.774-6.153c-0.147-0.533-0.306-1.033-0.446-1.59l-0.404-1.719c-0.264-1.145-0.528-2.286-0.79-3.423
			c-0.95-4.567-1.67-9.102-2.111-13.56c-0.812-8.916-0.376-17.504,1.447-25.147c0.895-3.826,2.105-7.412,3.483-10.773
			C282.73,324.442,284.294,321.306,285.755,318.219z"/>
		<path style="fill:#231815;" d="M305.308,503.668c-0.521,1.001-0.591,2.368-0.212,3.266c0.214,0.433,0.496,0.759,0.856,1.071
			c0.412,0.274,0.857,0.577,1.421,0.816c1.093,0.501,2.063,1.004,2.649,1.396c0.588,0.406,0.795,0.758,0.564,0.751
			c-0.439-0.069-1.404,1.535-3.99,0.871c-1.254-0.346-2.422-0.918-3.316-1.674c-0.904-0.742-1.503-1.632-1.857-2.3
			c-0.369-0.685-0.305-0.929-0.214-1.488c0.028-0.288,0.099-0.641,0.199-1.156c0.039-0.263,0.088-0.563,0.177-0.899
			c0.082-0.339,0.145-0.745,0.284-1.175c0.495-1.776,1.404-2.488,2.012-2.689c0.619-0.199,1.038,0.124,1.003,0.602
			c-0.039,0.481,0.018,1.156,0.155,1.691C305.144,503.283,305.308,503.668,305.308,503.668z"/>
		<path style="fill:#231815;" d="M318.647,504.929c-0.134,0.16-0.264,0.334-0.393,0.525l-0.193,0.295l-0.045,0.06l-0.021,0.116
			l0.202-0.031l0.027-0.001l0.215,0.062l0.44,0.121c0.309,0.076,0.612,0.151,0.909,0.225c1.018,0.253,1.896,0.603,2.431,0.949
			c0.539,0.338,0.74,0.665,0.551,0.684c-0.378,0.01-0.969,1.568-3.103,1.476c-0.527-0.036-1.036-0.095-1.522-0.157
			c-0.241-0.043-0.48-0.068-0.707-0.118c-0.117-0.022-0.23-0.043-0.344-0.064c-0.154-0.045-0.305-0.089-0.453-0.132
			c-1.222-0.354-2.184-0.877-3.05-1.256c-0.574-0.262-0.847-0.445-1.018-0.631c0.282-0.293,0.674-0.643,1.222-1.234
			c0.28-0.295,0.586-0.646,0.899-1.089c0.14-0.21,0.294-0.444,0.466-0.704c0.095-0.156,0.201-0.326,0.317-0.515
			c0.671-1.163,1.535-1.682,2.152-1.703c0.617-0.025,0.958,0.379,0.887,0.757C318.362,503.348,318.647,504.929,318.647,504.929z"/>
		<path style="fill:#231815;" d="M343.137,389.463c-0.533,3.301-0.498,6.81,0.172,10.199c0.646,3.386,1.831,6.616,2.973,9.286
			c0.622,1.317,2.321,5.137,5.36,9.947c2.984,4.83,7.177,10.65,11.497,16.51c4.315,5.858,8.649,11.857,11.847,17.068
			c3.219,5.205,5.173,9.668,6.022,11.57c0.453,0.935,0.777,1.965,1.159,3.007c0.362,1.052,0.562,2.213,0.839,3.398
			c0.335,2.422,0.577,5.176-0.07,8.228c-0.195,1.544-0.821,3.081-1.4,4.713c-0.38,0.774-0.77,1.57-1.173,2.391
			c-0.463,0.788-0.998,1.568-1.524,2.388c-0.563,0.791-1.234,1.533-1.882,2.337c-0.694,0.754-1.468,1.466-2.239,2.235
			c-0.83,0.673-1.675,1.403-2.581,2.081c-0.93,0.621-1.862,1.353-2.879,1.941c-5.84,3.709-14.102,6.114-20.613,8.004
			c-6.521,1.852-11.506,3.267-11.506,3.267c-0.187-0.201,1.335-1.113,3.888-2.394c2.556-1.27,6.16-2.87,10.055-4.548
			c3.891-1.682,8.058-3.478,11.625-5.32c3.585-1.817,6.484-3.761,8.251-5.133c1.823-1.314,3.763-3.198,5.335-5.542
			c1.551-2.346,2.827-5.137,3.167-8.005c0.377-2.854,0.196-5.692-0.374-8.089c-0.222-1.207-0.63-2.287-0.882-3.263
			c-0.327-0.959-0.665-1.782-0.909-2.457c-0.515-1.342-1.861-4.274-3.989-7.788c-2.104-3.526-4.982-7.62-7.975-11.582
			c-2.99-3.965-6.061-7.826-8.505-10.95c-2.448-3.119-4.262-5.504-4.953-6.318c-1.356-1.65-3.625-4.541-6.064-8.334
			c-2.432-3.783-5.093-8.474-6.797-13.788c-1.64-5.368-1.232-9.823-0.217-12.699c0.554-1.439,1.169-2.546,1.741-3.386
			c0.664-0.812,1.247-1.388,1.739-1.816c0.981-0.845,1.159-0.054,1.139,0.853C343.389,388.396,343.137,389.463,343.137,389.463z"/>
		<path style="fill:#231815;" d="M228.071,194.1c3.63,10.154,6.317,22.749,7.377,36.033c0.242,3.31,0.477,6.604,0.474,10.055
			c-0.008,3.421-0.29,6.999-1.474,10.505c-0.574,1.753-1.486,3.442-2.6,4.969c-1.124,1.544-2.587,2.778-4.098,3.842
			c-3.248,2.074-6.729,2.717-9.846,3.187c-3.145,0.442-5.935,0.661-8.344,1.144c-2.408,0.469-4.407,1.191-5.875,2.264
			c-1.464,1.072-2.44,2.457-3.064,3.874c-0.153,0.354-0.318,0.693-0.424,1.05c-0.106,0.307-0.21,0.603-0.31,0.888
			c-0.064,0.187-0.124,0.367-0.183,0.54c0.068,0.147,0.181,0.281,0.286,0.414c0.181,0.236,0.579,0.531,0.975,0.725
			c0.389,0.196,0.799,0.324,1.182,0.431c0.772,0.207,1.4,0.358,1.786,0.501c0.777,0.287,0.674,0.365-0.248,0.226
			c-0.926-0.168-2.093,0.008-3.545-0.482c-0.355-0.132-0.724-0.326-1.11-0.584c-0.181-0.141-0.382-0.277-0.568-0.448l-0.278-0.261
			l0.03-0.374c0.083-1.088,0.183-2.152,0.523-3.31c0.325-1.162,0.833-2.448,1.737-3.689c0.894-1.241,2.192-2.393,3.786-3.277
			c3.215-1.797,7.361-2.399,11.873-3.031c4.527-0.625,8.635-1.638,11.238-4.335c1.335-1.273,2.309-2.796,2.98-4.406
			c0.652-1.624,1.016-3.316,1.238-4.97c0.418-3.325,0.255-6.495,0.06-9.331c-0.207-2.846-0.483-5.388-0.735-7.478
			c-0.593-4.217-0.633-5.431-0.951-8.763c-0.157-1.666-0.405-3.861-0.982-7.195c-0.569-3.333-1.497-7.819-3.452-13.866
			c-1.982-6.035-4.086-10.62-6.02-13.951c-1.945-3.317-3.58-5.509-4.69-6.839c-2.245-2.663-1.523-2.839,1.514-0.488
			c2.876,2.476,6.059,6.488,8.202,10.024c1.13,1.742,1.951,3.369,2.584,4.525c0.317,0.578,0.568,1.045,0.713,1.374
			C227.986,193.921,228.071,194.1,228.071,194.1z"/>
		<path style="fill:#231815;" d="M208.112,275.706c-0.093,0.031-0.195-0.108-0.057,0.594l0.149,0.479l0.205,0.492l0.087,0.036
			c0.043-0.005-0.036-0.022,0.099-0.016l0.69,0.047c0.453,0.037,0.907,0.073,1.357,0.108c0.893,0.078,1.755,0.166,2.564,0.273
			c1.616,0.216,2.716,0.48,3.42,0.698c0.695,0.209,0.987,0.43,0.735,0.484c-0.246,0.052-0.558,0.417-1.191,0.77
			c-0.625,0.357-1.574,0.692-2.901,0.642c-1.323-0.051-2.494-0.098-3.492-0.089c-0.499,0.003-0.951,0.018-1.355,0.044
			c-0.128,0.021-0.566,0.01-0.893,0.016c-0.352,0.004-0.678,0.007-0.98,0.01l-0.224,0.002l-0.101-0.148l-0.159-0.294
			c-0.095-0.186-0.171-0.355-0.237-0.52s-0.122-0.327-0.178-0.501c-0.057-0.169-0.122-0.386-0.136-0.514
			c-0.051-0.275-0.116-0.634-0.217-1.185c-0.058-0.275-0.106-0.643-0.123-1.124c-0.019-0.468,0.07-1.239,0.523-1.889
			c0.218-0.328,0.529-0.589,0.774-0.756c0.247-0.163,0.465-0.271,0.659-0.349c0.393-0.161,0.697-0.237,0.969-0.292
			c0.524-0.107,0.919-0.108,1.215-0.072c0.599,0.081,0.818,0.452,0.43,0.878c-0.375,0.409-0.929,0.99-1.283,1.443
			C208.096,275.435,208.089,275.729,208.112,275.706z"/>
		<path style="fill:#231815;" d="M219.961,275.627c-0.017,0.193-0.107,0.465-0.042,0.625l0.039,0.286l0.113,0.205
			c0.173,0.239,0.393,0.416,0.866,0.484c0.942,0.137,2.278-0.234,3.449-0.629c1.183-0.419,2.156-0.668,2.788-0.794
			c0.645-0.11,0.989-0.021,0.819,0.119c-0.336,0.23-0.2,1.851-2.374,2.964c-1.083,0.506-2.111,0.882-3.069,1.127
			c-0.973,0.201-1.869,0.312-2.63,0.207c-0.757-0.064-0.963-0.318-1.423-0.733c-0.216-0.223-0.497-0.587-0.818-1.111
			c-0.119-0.283-0.298-0.617-0.41-1.006c-0.052-0.376-0.221-0.86-0.188-1.334c0.008-1.985,0.864-2.749,1.341-3.034
			c0.511-0.276,0.878-0.021,0.881,0.422c0.004,0.448,0.077,1.059,0.284,1.496c0.088,0.22,0.166,0.404,0.231,0.529L219.961,275.627z"
			/>
		<path style="fill:#231815;" d="M235.155,275.478c0.286,0.187,0.846,0.236,1.685-0.122c0.815-0.349,1.721-0.991,2.578-1.785
			c1.723-1.582,3.351-3.704,4.667-5.933c2.638-4.564,4.413-9.973,5.934-14.884c1.504-4.934,2.549-8.447,3.302-10.517
			c0.734-2.073,1.195-2.698,1.106-1.909c-0.093,0.786,0.176,2.012,0.253,4.047c0.077,2.03-0.023,4.885-1.019,8.791
			c-1.996,7.801-4.37,13.888-6.211,17.448c-0.934,1.766-1.373,2.155-2.462,3.268c-0.562,0.546-1.283,1.272-2.484,2.331
			c-0.612,0.522-1.336,1.134-2.325,1.783c-0.999,0.613-2.228,1.416-4.247,1.597c-1.016,0.063-2.081-0.215-2.88-0.702
			c-0.828-0.476-1.37-1.106-1.792-1.686c-0.813-1.186-1.141-2.265-1.357-3.183c-0.406-1.843-0.345-3.12-0.2-3.933
			c0.306-1.621,0.953-1.397,1.391,0.098c0.452,1.488,1.382,3.431,2.406,4.454c0.505,0.5,0.965,0.783,1.25,0.816
			C235.034,275.512,235.155,275.478,235.155,275.478z"/>
		<path style="fill:#231815;" d="M183.263,98.969c0.523,0.913,1.516,1.707,2.548,2.188c1.05,0.515,2.01,0.622,2.904,0.765
			c0.901,0.142,1.792,0.259,2.455,0.412c0.657,0.146,1.05,0.387,0.867,0.491c-0.182,0.092-0.213,0.615-0.553,1.216
			c-0.331,0.581-1.016,1.34-2.31,1.483c-2.564,0.239-4.579-0.405-5.799-0.662c-0.633-0.131-0.691-0.345-0.98-0.726
			c-0.271-0.398-0.736-0.986-1.851-2.167c-1.104-1.207-1.199-2.299-0.982-2.941c0.219-0.65,0.771-0.913,1.169-0.7
			c0.398,0.221,1.034,0.415,1.574,0.512C182.831,98.953,183.263,98.969,183.263,98.969z"/>
		<path style="fill:#231815;" d="M174.511,85.543c-2.023-3.378-4.842-7.202-8.061-10.912c-3.209-3.721-6.83-7.332-9.998-10.785
			c-6.355-6.91-8.075-10.417-7.158-9.345c0.954,1.042,3.462,2.537,8.327,7.57c2.434,2.522,4.674,4.756,6.575,6.68
			c1.892,1.934,3.466,3.535,4.603,4.744c1.158,1.194,1.4,1.611,2.138,2.687c0.735,1.077,1.971,2.815,4.735,6.928
			c2.733,4.139,3.889,6.875,4.291,8.193c0.395,1.325-0.024,1.285-0.822,0.129c-0.792-1.159-1.922-2.658-2.897-3.83
			C175.297,86.411,174.511,85.543,174.511,85.543z"/>
		<path style="fill:#231815;" d="M163.845,88.47c-7.305-4.368-18.524-8.977-28.079-11.644c-4.777-1.363-8.182-1.918-10.215-2.243
			c-2.032-0.228-2.698-0.45-1.94-0.46c0.377-0.005,0.846-0.07,1.462-0.166c0.307-0.043,0.653-0.113,1.042-0.153
			c0.389-0.02,0.821-0.042,1.299-0.067c0.483-0.013,1.013-0.026,1.598-0.041c0.581,0.044,1.216,0.093,1.909,0.145
			c1.398,0.092,2.995,0.429,4.865,0.845c7.415,1.917,13.139,4.06,16.502,5.266c1.687,0.598,2.118,0.887,3.36,1.537
			c1.239,0.657,3.261,1.73,7.982,4.236c4.69,2.568,7.214,4.573,8.232,5.668c1.03,1.078,0.611,1.212-0.7,0.465
			c-1.301-0.763-3.134-1.623-4.637-2.277c-0.754-0.32-1.421-0.604-1.899-0.807C164.14,88.585,163.845,88.47,163.845,88.47z"/>
		<path style="fill:#231815;" d="M161.38,96.857c-3.507-1.037-7.943-1.585-12.56-1.793c-4.623-0.217-9.436-0.132-13.834-0.163
			c-8.813-0.027-12.372-0.977-11.04-0.976c1.331-0.004,3.949-0.943,10.561-1.087c6.617-0.142,11.94-0.266,15.075-0.266
			c1.568-0.019,2.012,0.108,3.228,0.293c1.211,0.246,3.213,0.463,7.823,1.459c4.613,1.062,7.117,2.524,8.144,3.326
			c1.041,0.802,0.671,1.016-0.572,0.596c-1.23-0.462-2.957-0.815-4.342-1.076C162.461,96.994,161.38,96.857,161.38,96.857z"/>
		<path style="fill:#231815;" d="M276.375,385.622c-0.504,2.254-0.413,5.162-0.093,8.174c0.313,3.019,0.825,6.174,0.994,9.129
			c0.178,2.952-0.095,5.094-0.436,6.338c-0.34,1.247-0.672,1.61-0.689,1.171c-0.04-0.905-1.427-2.552-1.929-6.863
			c-0.518-4.338-1.287-7.821-1.756-9.902c-0.259-1.035-0.163-1.355-0.075-2.188c0.039-0.416,0.108-0.97,0.17-1.817
			c0.054-0.844,0.117-1.99,0.29-3.605c0.365-3.261,1.547-5.054,2.328-5.644c0.766-0.618,1.159-0.216,1.001,0.628
			c-0.199,0.84-0.166,2.025-0.076,2.946c0.07,0.463,0.131,0.873,0.176,1.167C276.323,385.443,276.375,385.622,276.375,385.622z"/>
		<path style="fill:#231815;" d="M269.055,409.583c0.12,3.357,2.525,7.777,3.286,12.078c0.37,2.148,0.17,3.759-0.123,4.679
			c-0.293,0.927-0.611,1.201-0.643,0.891c-0.088-0.65-1.482-1.704-2.198-4.608c-0.756-2.948-1.904-5.205-2.643-6.533
			c-0.376-0.665-0.354-0.897-0.39-1.495c-0.018-0.612-0.154-1.562-0.586-3.813c-0.417-2.271,0.002-3.713,0.454-4.324
			c0.454-0.622,0.976-0.497,1.169,0.104c0.176,0.607,0.593,1.385,0.958,1.984C268.723,409.148,269.055,409.583,269.055,409.583z"/>
		<path style="fill:#231815;" d="M266.86,433.505c1.582,3.966,1.547,9.17,0.786,12.821c-0.186,0.906-0.712,3.545-2.13,6.83
			c-1.4,3.29-4.031,7.045-7.393,9.94c-3.332,2.941-7.209,5.074-10.425,6.545c-3.227,1.466-5.794,2.408-6.827,2.957
			c-4.132,2.216-9.523,3.046-19.183,6.081c-3.473,1.121-8.099,2.003-11.723,2.963c-1.818,0.468-3.398,0.939-4.521,1.307
			c-1.118,0.387-1.794,0.621-1.794,0.621c-0.172-0.192,0.522-0.921,1.816-1.92c1.318-0.948,3.256-2.144,5.475-3.173
			c4.418-2.137,9.756-3.858,12.352-4.488c2.61-0.616,6.255-1.473,9.616-2.376c3.365-0.893,6.434-1.868,8.01-2.408
			c1.547-0.557,7.03-2.548,11.471-5.816c2.21-1.618,4.207-3.439,5.476-5.142c1.309-1.67,2.065-3.06,2.25-3.596
			c0.906-2.045,2.821-7.145,2.705-12.674c-0.028-5.429,0.959-8.118,2.023-9.599c0.506-0.734,1.009-0.471,1.387-0.003
			C266.607,432.842,266.86,433.505,266.86,433.505z"/>
		<path style="fill:#231815;" d="M199.48,481.092c-0.23-0.326-0.465-0.677-0.684-1.076c-0.243-0.372-0.448-0.802-0.651-1.254
			c-0.397-0.897-0.7-1.971-0.675-3.096c-0.048-2.305,1.215-4.354,2.543-5.596c1.383-1.241,2.598-1.655,3.355-1.779
			c0.758-0.13,1.075,0.001,0.874,0.14c-0.392,0.308-0.658,1.703-2.225,3.279c-0.777,0.815-1.233,1.703-1.434,2.451
			c-0.206,0.757-0.092,1.369,0.042,1.767c0.149,0.399,0.12,0.5,0.057,0.847c0.022,0.326-0.102,0.968,0.77,2.178
			c0.883,1.18,1.442,2.019,1.529,2.627c0.098,0.601-0.213,0.902-0.693,0.685c-0.482-0.201-1.182-0.439-1.761-0.694
			c-0.298-0.113-0.562-0.228-0.743-0.328C199.596,481.15,199.48,481.092,199.48,481.092z"/>
		<path style="fill:#231815;" d="M190.862,479.211c-0.516-1.282-1.176-2.827-1.398-4.602c-0.251-1.751-0.022-3.713,0.798-5.203
			c0.812-1.494,1.826-2.178,2.48-2.435c0.66-0.266,0.977-0.192,0.836-0.03c-0.266,0.368-0.112,1.656-0.878,3.357
			c-0.794,1.786-0.448,3.41-0.072,4.184c0.198,0.4,0.159,0.519,0.106,0.873c-0.007,0.341-0.076,0.951,0.5,2.171
			c0.583,1.198,0.829,2.031,0.76,2.599c-0.065,0.562-0.427,0.8-0.815,0.533c-0.418-0.252-0.989-0.598-1.459-0.882
			C191.238,479.459,190.862,479.211,190.862,479.211z"/>
		<path style="fill:#231815;" d="M368.1,314.214c-0.189,3.302-0.057,7.297-0.14,11.487c-0.083,4.182-0.386,8.579-1.329,12.481
			c-0.936,3.903-2.246,6.451-3.184,7.849c-0.945,1.401-1.474,1.715-1.291,1.165c0.336-1.138-0.266-3.764,0.834-9.304
			c1.054-5.604,0.854-10.233,0.568-12.903c-0.348-2.693,0.528-1.488,0.519-9.59c-0.054-8.132,1.973-9.698,2.376-7.369
			C366.861,310.345,368.1,314.214,368.1,314.214z"/>
		<path style="fill:#231815;" d="M358.021,349.663c-0.777,4.195-1.833,9.177-3.023,14.228c-1.174,5.054-2.417,10.172-2.907,14.711
			c-0.559,4.541-0.195,7.658,0.022,9.616c0.307,1.921,0.193,2.703-0.087,2.025c-0.139-0.335-0.402-0.709-0.771-1.203
			c-0.188-0.251-0.395-0.53-0.629-0.843c-0.211-0.325-0.395-0.708-0.617-1.135c-0.216-0.428-0.446-0.909-0.683-1.451
			c-0.189-0.549-0.343-1.165-0.512-1.846c-0.081-0.341-0.166-0.699-0.237-1.074c-0.033-0.376-0.068-0.768-0.104-1.176
			c-0.054-0.818-0.134-1.713-0.035-2.656c0.22-3.801,0.83-7.115,1.323-9.908c0.49-2.802,0.889-5.094,1.106-6.794
			c0.228-1.705,0.424-2.139,0.892-3.397c0.441-1.256,1.211-3.313,2.067-8.253c0.816-4.931,1.307-7.856,1.915-9.237
			c0.6-1.376,1.197-1.156,1.35,0.33c0.076,0.74,0.198,1.608,0.337,2.502c0.101,0.896,0.205,1.808,0.297,2.627
			c0.104,0.826,0.195,1.564,0.225,2.087C357.993,349.344,358.021,349.663,358.021,349.663z"/>
		<path style="fill:#231815;" d="M221.139,138.303c1.761,1.605,4.961,2.557,7.474,3.514c2.525,0.967,3.569,2.126,3.135,2.104
			c-0.411-0.077-1.475,1.007-3.684,0.43c-2.169-0.594-3.932-1.062-5.025-1.278c-1.068-0.262-0.48-0.447-3.157-2.146
			c-1.326-0.889-1.826-1.786-1.902-2.353c-0.077-0.572,0.264-0.85,0.686-0.693c0.419,0.163,1.047,0.278,1.556,0.345
			C220.737,138.288,221.139,138.303,221.139,138.303z"/>
		<path style="fill:#231815;" d="M236.808,132.325c2.218,1.819,5.931,3.446,8.701,5.302c2.772,1.855,3.491,3.443,3.034,3.229
			c-0.446-0.231-1.891,0.355-4.141-0.882c-2.238-1.239-4.132-2.052-5.303-2.435c-1.165-0.393-0.446-0.585-3.449-2.532
			c-2.992-1.981-2.705-3.571-1.714-3.227C234.934,132.119,236.808,132.325,236.808,132.325z"/>
		<path style="fill:#231815;" d="M254.18,125.567c2.623,2.542,6.927,5.151,10.59,6.157c1.834,0.538,3.219,0.83,4.09,1.051
			c0.871,0.225,1.203,0.477,0.882,0.514c-0.318,0.026-0.746,0.399-1.561,0.736c-0.805,0.301-2.049,0.638-3.746,0.272
			c-3.372-0.721-5.829-1.97-7.312-2.566c-1.436-0.662-0.683-0.679-4.258-3.526c-3.495-2.869-3.257-4.496-2.079-3.923
			C251.982,124.868,254.18,125.567,254.18,125.567z"/>
		<path style="fill:#231815;" d="M201.35,458.508c-2.494-0.155-5.196-0.317-7.981-0.286c-2.745,0.05-5.72,0.243-8.02,1.22
			c-0.574,0.236-1.075,0.528-1.492,0.863c-0.221,0.159-0.393,0.346-0.571,0.527c-0.195,0.217-0.421,0.519-0.632,0.773
			c-0.828,1.079-1.583,2.252-2.114,3.479c-0.316,0.6-0.476,1.229-0.713,1.837c-0.119,0.613-0.354,1.23-0.369,1.82
			c-0.201,1.206-0.033,2.301,0.276,3.296c0.683,1.969,2.31,3.321,3.843,4.274c0.399,0.234,0.776,0.456,1.133,0.665
			c0.362,0.215,0.752,0.342,1.093,0.51c0.701,0.296,1.291,0.656,1.85,0.829c2.191,0.83,2.886,1.359,2.027,1.212
			c-0.427-0.073-0.971-0.063-1.698-0.033c-0.362,0.009-0.772,0.049-1.228,0.038c-0.457-0.037-0.962-0.078-1.523-0.124
			c-0.565-0.056-1.197-0.105-1.863-0.323c-0.337-0.099-0.692-0.203-1.062-0.31c-0.186-0.059-0.375-0.118-0.569-0.179
			c-0.184-0.092-0.372-0.184-0.565-0.28c-0.384-0.204-0.786-0.417-1.203-0.639c-0.423-0.219-0.786-0.596-1.2-0.922
			c-0.202-0.174-0.407-0.352-0.617-0.533c-0.173-0.221-0.352-0.447-0.534-0.677c-0.361-0.466-0.742-0.948-0.974-1.553
			c-1.132-2.326-1.152-4.84-0.758-6.938c0.394-2.129,1.163-3.97,2.04-5.55c0.407-0.812,0.91-1.521,1.364-2.216
			c0.248-0.334,0.49-0.661,0.727-0.978c0.217-0.31,0.583-0.671,0.869-0.977c1.276-1.192,2.601-1.851,3.688-2.32
			c2.203-0.87,2.876-0.795,4.594-0.857c1.709-0.03,4.477,0.046,10.55,0.28c2.973,0.124,5.343,0.222,7.177,0.299
			c1.791,0.051,3.055,0.087,3.859,0.11c0.821,0.039,1.248,0.153,1.272,0.417c0.018,0.241-0.39,0.66-1.251,0.991
			c-1.704,0.673-4.085,1.25-6.016,1.626C202.834,458.233,201.35,458.508,201.35,458.508z"/>
		<path style="fill:#231815;" d="M319.543,26.185c5.118-2.628,2.264,8.338,2.264,8.338s2.844,0.525,5.118,0.525
			c2.275,0,3.107-2.589,7.087-0.487c3.982,2.102,3.15,6.268,3.15,6.268s-2.275,7.356,1.136,4.729
			c3.413-2.627-0.468,15.479,5.614,10.327c6.082-5.152,8.603-18.735,9.172-30.821c0.568-12.087-1.138-9.984-11.942-6.831
			C330.338,21.386,319.543,26.185,319.543,26.185z"/>
		<path style="fill:#231815;" d="M258.62,21.616c4.569-9.139,21.323-25.131,26.655-17.516c5.331,7.615,2.285,17.516,2.285,22.847
			s-6.093-0.762-6.093-0.762h-4.57l-4.568-1.523c0,0,4.568-8.377-0.762-6.854C266.235,19.331,258.62,21.616,258.62,21.616z"/>
	</g>
</g>
</svg>
